<svg xmlns="http://www.w3.org/2000/svg" width="400" height="300" viewBox="0 0 400 300" fill="none">
  <defs>
    <linearGradient id="grad1" x1="0%" y1="0%" x2="100%" y2="100%">
      <stop offset="0%" style="stop-color:#6366F1;stop-opacity:1" />
      <stop offset="100%" style="stop-color:#8B5CF6;stop-opacity:1" />
    </linearGradient>
  </defs>

  <!-- Main box/generator shape -->
  <rect x="100" y="80" width="200" height="140" rx="16" fill="url(#grad1)" opacity="0.9"/>

  <!-- Input arrow -->
  <path d="M50 150 L90 150" stroke="#6366F1" stroke-width="4" stroke-linecap="round"/>
  <path d="M80 140 L95 150 L80 160" stroke="#6366F1" stroke-width="4" stroke-linecap="round" stroke-linejoin="round" fill="none"/>

  <!-- Output arrows -->
  <path d="M310 120 L350 120" stroke="#10B981" stroke-width="4" stroke-linecap="round"/>
  <path d="M340 110 L355 120 L340 130" stroke="#10B981" stroke-width="4" stroke-linecap="round" stroke-linejoin="round" fill="none"/>

  <path d="M310 150 L350 150" stroke="#F59E0B" stroke-width="4" stroke-linecap="round"/>
  <path d="M340 140 L355 150 L340 160" stroke="#F59E0B" stroke-width="4" stroke-linecap="round" stroke-linejoin="round" fill="none"/>

  <path d="M310 180 L350 180" stroke="#EC4899" stroke-width="4" stroke-linecap="round"/>
  <path d="M340 170 L355 180 L340 190" stroke="#EC4899" stroke-width="4" stroke-linecap="round" stroke-linejoin="round" fill="none"/>

  <!-- Internal pattern -->
  <rect x="130" y="110" width="60" height="8" rx="4" fill="white" opacity="0.6"/>
  <rect x="130" y="130" width="140" height="8" rx="4" fill="white" opacity="0.6"/>
  <rect x="130" y="150" width="100" height="8" rx="4" fill="white" opacity="0.6"/>
  <rect x="130" y="170" width="120" height="8" rx="4" fill="white" opacity="0.6"/>
  <rect x="130" y="190" width="80" height="8" rx="4" fill="white" opacity="0.6"/>

  <!-- Labels -->
  <text x="50" y="180" font-family="system-ui" font-size="12" fill="#6B7280">Schema</text>
  <text x="340" y="100" font-family="system-ui" font-size="12" fill="#10B981">REST</text>
  <text x="340" y="168" font-family="system-ui" font-size="12" fill="#F59E0B">GraphQL</text>
  <text x="340" y="208" font-family="system-ui" font-size="12" fill="#EC4899">tRPC</text>

  <!-- Center icon -->
  <circle cx="200" cy="150" r="20" fill="white" opacity="0.2"/>
  <path d="M192 150 L200 143 L208 150 L200 157 Z" fill="white"/>
</svg>
